<svg width="326" height="211" viewBox="0 0 326 211" fill="none" xmlns="http://www.w3.org/2000/svg">
<path d="M37.6009 125.812H66.2963V126.058H37.6009V129.259H71.7385V121.134H88.8074V119.411H75.2018V117.687H85.5915V117.441H75.2018V115.718H71.7385V33.9767H119.729V0H37.6009V108.824H34.1377V112.271H37.6009V113.994H20.5321V115.718H23.9953V116.21H37.6009V117.441H23.9953V117.687H37.6009V121.134H17.0688V121.627H37.6009V125.812ZM37.6009 138.369H71.7385V136.153H60.112V135.907H71.7385V129.751H37.6009V132.706H11.874V136.153H37.6009V138.369ZM75.2018 129.751V132.706H78.665V129.751H75.2018ZM32.406 137.876H25.7269V138.369H32.406V137.876ZM29.1902 139.6V143.047H32.406V140.338H37.6009V146.001H56.154V146.247H37.6009V147.478H71.7385V143.047H68.2753V139.6H71.7385V139.354H37.6009V139.6H32.406V139.354H25.7269L29.1902 139.6ZM18.8004 139.6H11.874V141.323H18.8004V139.6ZM71.7385 149.202H37.6009V149.694H34.1377V150.187H37.6009V152.403H29.1902V153.141H37.6009V156.834H71.7385V156.588H78.665V154.865H71.7385V150.187H95.7338V149.694H71.7385V149.202ZM8.6581 153.141H5.19486V156.588H8.6581V153.141ZM88.8074 165.205H71.7385V160.774H76.9334V160.035H71.7385V158.804H37.6009V165.205H29.1902V165.944H88.8074V165.205ZM44.5274 172.838V175.054H71.7385V168.652H37.6009V169.391H44.5274V172.592H54.6697V172.838H44.5274ZM80.3967 175.054V173.576H76.9334V175.054H80.3967ZM126.656 180.47H119.729V178.254H82.1283V180.47H78.665V178.254H58.133V179.485H37.6009V183.425H20.5321V183.917H37.6009V184.41H119.729V183.425H90.539V183.179H119.729V181.947H90.539V181.455H87.3231V179.485H117.998V181.455H119.729V180.716H126.656V180.47ZM6.92648 191.55H37.6009V193.519H39.3325V193.273H42.7958V193.519H119.729V187.856H37.6009V190.565H34.1377V187.856H3.46324V190.565H6.92648V191.55ZM126.656 193.519V190.565H123.192V193.519H126.656ZM99.1971 197.705H20.5321V200.905H0V201.644H37.6009V202.629H119.729V198.197H99.1971V197.705ZM119.729 197.705V198.197H150.404V197.705H119.729ZM116.266 207.307H37.6009V211H119.729V207.553H116.266V207.307ZM119.729 207.553H123.192V207.307H119.729V207.553Z" fill="url(#paint0_radial)"/>
<path d="M254.261 115.718H250.798V117.441H240.408V117.687H250.798V119.411H237.193V121.134H254.261V129.259H288.399V126.058H259.704V125.812H288.399V121.627H308.931V121.134H288.399V117.687H302.005V117.441H288.399V116.21H302.005V115.718H305.468V113.994H288.399V112.271H291.862V108.824H288.399V0H206.271V33.9767H254.261V115.718ZM247.335 129.751V132.706H250.798V129.751H247.335ZM288.399 129.751H254.261V135.907H265.888V136.153H254.261V138.369H288.399V136.153H314.126V132.706H288.399V129.751ZM300.273 137.876H293.594V138.369H300.273V137.876ZM296.81 139.6L300.273 139.354H293.594V139.6H288.399V139.354H254.261V139.6H257.725V143.047H254.261V147.478H288.399V146.247H269.846V146.001H288.399V140.338H293.594V143.047H296.81V139.6ZM307.2 139.6V141.323H314.126V139.6H307.2ZM296.81 152.403H288.399V150.187H291.862V149.694H288.399V149.202H254.261V149.694H230.266V150.187H254.261V154.865H247.335V156.588H254.261V156.834H288.399V153.141H296.81V152.403ZM320.805 153.141H317.342V156.588H320.805V153.141ZM296.81 165.205H288.399V158.804H254.261V160.035H249.067V160.774H254.261V165.205H237.193V165.944H296.81V165.205ZM281.473 172.592V169.391H288.399V168.652H254.261V175.054H281.473V172.838H271.33V172.592H281.473ZM249.067 175.054V173.576H245.603V175.054H249.067ZM206.271 181.455H208.002V179.485H238.677V181.455H235.461V181.947H206.271V183.179H235.461V183.425H206.271V184.41H288.399V183.917H305.468V183.425H288.399V179.485H267.867V178.254H247.335V180.47H243.872V178.254H206.271V180.47H199.344V180.716H206.271V181.455ZM288.399 193.519V191.55H319.073V190.565H322.537V187.856H291.862V190.565H288.399V187.856H206.271V193.519H283.204V193.273H286.667V193.519H288.399ZM202.808 190.565H199.344V193.519H202.808V190.565ZM175.596 197.705V198.197H206.271V197.705H175.596ZM305.468 200.905V197.705H226.803V198.197H206.271V202.629H288.399V201.644H326V200.905H305.468ZM202.808 207.307V207.553H206.271V207.307H202.808ZM209.734 207.553H206.271V211H288.399V207.307H209.734V207.553Z" fill="url(#paint1_radial)"/>
<defs>
<radialGradient id="paint0_radial" cx="0" cy="0" r="1" gradientUnits="userSpaceOnUse" gradientTransform="translate(30.7889 26.1405) rotate(32.0546) scale(348.314 566.153)">
<stop stop-color="#FFDF00"/>
<stop offset="1" stop-color="#EFD100"/>
</radialGradient>
<radialGradient id="paint1_radial" cx="0" cy="0" r="1" gradientUnits="userSpaceOnUse" gradientTransform="translate(30.7889 26.1405) rotate(32.0546) scale(348.314 566.153)">
<stop stop-color="#FFDF00"/>
<stop offset="1" stop-color="#EFD100"/>
</radialGradient>
</defs>
</svg>
